<?xml version="1.0" encoding="UTF-8" standalone="no"?>
<!DOCTYPE svg PUBLIC "-//W3C//DTD SVG 1.1//EN" "http://www.w3.org/Graphics/SVG/1.1/DTD/svg11.dtd">
<svg xmlns="http://www.w3.org/2000/svg" version="1.1" viewBox="47 52 118 105">
<path stroke="#4459ba" stroke-width="2.00" fill="none" stroke-linecap="butt" vector-effect="non-scaling-stroke" d="
  M 107.57 100.28
  Q 111.17 95.88 113.36 91.07"
/>
<path fill="#24d8dc" d="
  M 132.78 62.83
  L 160.30 56.35
  A 0.32 0.32 0.0 0 1 160.69 56.73
  L 154.31 85.07
  A 0.32 0.32 0.0 0 1 153.69 85.08
  L 149.53 67.40
  A 0.32 0.32 0.0 0 0 149.28 67.16
  L 132.79 63.45
  A 0.32 0.32 0.0 0 1 132.78 62.83
  Z"
/>
<path fill="#5082d0" d="
  M 107.57 100.28
  Q 111.17 95.88 113.36 91.07
  Q 118.19 91.59 121.12 88.63
  Q 139.91 69.70 140.43 69.12
  A 1.10 1.06 -64.4 0 1 141.45 68.74
  L 146.20 69.62
  A 1.11 1.09 -1.1 0 1 147.08 70.45
  L 148.24 75.36
  A 1.01 1.00 -29.0 0 1 147.96 76.31
  Q 142.21 81.87 131.32 93.16
  Q 126.18 98.49 122.25 100.15
  Q 115.46 103.02 107.57 100.28
  Z"
/>
<path fill="#3730a3" d="
  M 113.36 91.07
  Q 111.17 95.88 107.57 100.28
  Q 103.56 98.64 102.16 97.34
  Q 91.14 87.05 88.61 84.73
  A 0.64 0.64 0.0 0 1 88.89 83.64
  Q 100.35 80.76 108.25 89.02
  Q 109.43 90.25 113.36 91.07
  Z"
/>
<path fill="#3730a3" d="
  M 79.92 109.26
  A 0.68 0.68 0.0 0 1 78.80 109.12
  C 74.89 101.44 76.80 91.50 83.97 86.44
  A 0.98 0.97 -41.7 0 1 85.17 86.50
  L 92.00 92.45
  A 0.72 0.71 -39.0 0 1 91.87 93.62
  Q 87.61 95.94 87.39 99.94
  A 2.28 2.27 66.9 0 1 86.84 101.31
  L 79.92 109.26
  Z"
/>

<path fill="#3730a3" d="
  M 82.33 112.82
  L 87.70 105.57
  A 0.67 0.67 0.0 0 1 88.68 105.47
  L 97.21 112.89
  A 0.67 0.67 0.0 0 1 97.44 113.40
  L 97.44 125.32
  A 0.67 0.67 0.0 0 1 96.33 125.82
  L 82.43 113.73
  A 0.67 0.67 0.0 0 1 82.33 112.82
  Z"
/>
<path fill="#a055ec" fill-opacity="0.996" d="
  M 92.54 142.14
  Q 93.17 142.07 95.73 141.88
  Q 101.27 141.45 102.44 136.06
  A 2.54 2.50 -21.4 0 1 102.87 135.09
  L 109.86 125.66
  A 0.73 0.73 0.0 0 1 111.07 125.71
  C 115.90 133.58 113.31 143.59 106.13 148.97
  Q 100.98 152.82 92.63 152.64
  A 0.61 0.60 -89.5 0 1 92.04 152.03
  L 92.04 142.69
  A 0.56 0.55 -2.9 0 1 92.54 142.14
  Z"
/>
<circle fill="#3730a3" cx="56.11" cy="147.24" r="5.21"/>
<circle fill="#3730a3" cx="69.81" cy="147.22" r="5.24"/>
<circle fill="#a055ec" fill-opacity="0.996" cx="83.49" cy="147.19" r="5.28"/>
</svg>
