<?xml version="1.0" encoding="UTF-8" standalone="no"?>
<!DOCTYPE svg PUBLIC "-//W3C//DTD SVG 1.1//EN" "http://www.w3.org/Graphics/SVG/1.1/DTD/svg11.dtd">
<svg xmlns="http://www.w3.org/2000/svg" version="1.1" viewBox="0.00 0.00 400.00 209.00">
<path stroke="#4459ba" stroke-width="2.00" fill="none" stroke-linecap="butt" vector-effect="non-scaling-stroke" d="
  M 107.57 100.28
  Q 111.17 95.88 113.36 91.07"
/>
<path fill="#24d8dc" d="
  M 132.78 62.83
  L 160.30 56.35
  A 0.32 0.32 0.0 0 1 160.69 56.73
  L 154.31 85.07
  A 0.32 0.32 0.0 0 1 153.69 85.08
  L 149.53 67.40
  A 0.32 0.32 0.0 0 0 149.28 67.16
  L 132.79 63.45
  A 0.32 0.32 0.0 0 1 132.78 62.83
  Z"
/>
<path fill="#5082d0" d="
  M 107.57 100.28
  Q 111.17 95.88 113.36 91.07
  Q 118.19 91.59 121.12 88.63
  Q 139.91 69.70 140.43 69.12
  A 1.10 1.06 -64.4 0 1 141.45 68.74
  L 146.20 69.62
  A 1.11 1.09 -1.1 0 1 147.08 70.45
  L 148.24 75.36
  A 1.01 1.00 -29.0 0 1 147.96 76.31
  Q 142.21 81.87 131.32 93.16
  Q 126.18 98.49 122.25 100.15
  Q 115.46 103.02 107.57 100.28
  Z"
/>
<path fill="#3730a3" d="
  M 113.36 91.07
  Q 111.17 95.88 107.57 100.28
  Q 103.56 98.64 102.16 97.34
  Q 91.14 87.05 88.61 84.73
  A 0.64 0.64 0.0 0 1 88.89 83.64
  Q 100.35 80.76 108.25 89.02
  Q 109.43 90.25 113.36 91.07
  Z"
/>
<path fill="#3730a3" d="
  M 79.92 109.26
  A 0.68 0.68 0.0 0 1 78.80 109.12
  C 74.89 101.44 76.80 91.50 83.97 86.44
  A 0.98 0.97 -41.7 0 1 85.17 86.50
  L 92.00 92.45
  A 0.72 0.71 -39.0 0 1 91.87 93.62
  Q 87.61 95.94 87.39 99.94
  A 2.28 2.27 66.9 0 1 86.84 101.31
  L 79.92 109.26
  Z"
/>
<circle fill="#24d8dc" cx="291.89" cy="91.24" r="3.66"/>
<rect fill="#24d8dc" x="-2.99" y="-15.82" transform="translate(303.07,105.04) rotate(-0.1)" width="5.98" height="31.64" rx="0.49"/>
<path fill="#24d8dc" d="
  M 342.65 89.90
  Q 342.76 89.90 342.88 89.94
  Q 343.06 89.99 343.10 90.05
  Q 346.34 94.54 350.06 100.64
  A 0.32 0.31 -1.6 0 1 349.64 101.08
  Q 347.38 99.90 344.00 98.00
  Q 342.95 97.41 342.64 97.41
  Q 342.32 97.41 341.27 98.00
  Q 337.89 99.89 335.62 101.06
  A 0.32 0.31 1.8 0 1 335.20 100.62
  Q 338.94 94.53 342.20 90.05
  Q 342.24 89.99 342.41 89.94
  Q 342.53 89.90 342.65 89.90
  Z"
/>
<path fill="#2cb9cf" d="
  M 263.84 90.96
  Q 275.03 90.64 277.23 91.04
  C 282.56 92.02 285.28 95.55 284.95 101.01
  Q 284.58 107.11 278.43 109.21
  C 276.06 110.02 272.38 109.77 270.02 109.87
  A 0.63 0.63 0.0 0 0 269.41 110.50
  L 269.41 120.31
  A 0.59 0.58 -90.0 0 1 268.83 120.90
  L 263.83 120.90
  A 0.75 0.74 -90.0 0 1 263.09 120.15
  L 263.09 91.73
  A 0.77 0.77 0.0 0 1 263.84 90.96
  Z
  M 269.40 96.63
  L 269.38 103.79
  A 0.68 0.68 0.0 0 0 270.06 104.47
  L 274.70 104.48
  A 4.22 4.14 0.1 0 0 278.93 100.35
  L 278.93 100.11
  A 4.22 4.14 0.1 0 0 274.72 95.96
  L 270.08 95.95
  A 0.68 0.68 0.0 0 0 269.40 96.63
  Z"
/>
<path fill="#a055ec" fill-opacity="0.996" d="
  M 228.67 97.26
  L 232.39 97.26
  A 0.73 0.73 0.0 0 1 233.12 97.99
  L 233.12 101.78
  A 0.77 0.77 0.0 0 1 232.35 102.55
  L 228.64 102.55
  A 0.59 0.59 0.0 0 0 228.05 103.14
  L 228.05 113.63
  A 2.00 1.99 -90.0 0 0 230.04 115.63
  L 232.71 115.63
  A 0.57 0.56 0.0 0 1 233.28 116.19
  L 233.28 120.08
  A 0.78 0.78 0.0 0 1 232.53 120.86
  C 227.74 121.06 223.55 120.92 222.01 115.83
  A 1.42 1.24 41.0 0 1 221.96 115.47
  L 221.91 103.05
  A 0.54 0.53 -90.0 0 0 221.38 102.51
  L 219.61 102.51
  A 0.57 0.57 0.0 0 1 219.04 101.94
  L 219.04 97.79
  A 0.59 0.58 -90.0 0 1 219.62 97.20
  L 221.53 97.20
  A 0.48 0.47 0.0 0 0 222.01 96.73
  L 222.01 91.66
  A 0.47 0.47 0.0 0 1 222.48 91.19
  L 227.56 91.19
  A 0.48 0.48 0.0 0 1 228.04 91.67
  L 228.04 96.63
  A 0.63 0.63 0.0 0 0 228.67 97.26
  Z"
/>
<path fill="#3730a3" d="
  M 177.86 97.09
  C 185.38 97.08 189.61 101.76 189.84 109.05
  Q 190.13 118.08 180.79 120.96
  A 0.75 0.75 0.0 0 1 179.82 120.24
  L 179.82 116.35
  A 1.11 1.10 76.3 0 1 180.41 115.37
  C 185.62 112.61 184.83 102.25 177.87 102.25
  C 170.90 102.25 170.11 112.61 175.33 115.37
  A 1.11 1.10 -76.3 0 1 175.92 116.35
  L 175.92 120.24
  A 0.75 0.75 0.0 0 1 174.95 120.96
  Q 165.61 118.09 165.89 109.05
  C 166.12 101.76 170.35 97.09 177.86 97.09
  Z"
/>
<path fill="#a055ec" fill-opacity="0.996" d="
  M 258.48 114.17
  C 254.60 123.47 241.69 123.53 236.94 115.11
  C 234.33 110.51 235.32 103.44 239.40 99.92
  Q 242.83 96.97 247.77 97.05
  C 255.56 97.16 259.69 102.83 259.31 110.35
  A 0.61 0.61 0.0 0 1 258.70 110.93
  L 242.90 110.93
  A 1.21 1.20 71.2 0 0 241.95 112.87
  L 242.97 114.21
  A 4.73 4.67 -10.0 0 0 245.39 115.88
  Q 249.53 117.10 252.17 113.80
  A 1.13 1.11 -70.5 0 1 253.05 113.37
  L 257.95 113.37
  A 0.58 0.58 0.0 0 1 258.48 114.17
  Z
  M 242.00 107.12
  L 252.82 107.04
  A 0.13 0.13 0.0 0 0 252.95 106.91
  L 252.95 106.83
  A 5.47 5.01 -0.4 0 0 247.44 101.86
  L 247.30 101.86
  A 5.47 5.01 -0.4 0 0 241.87 106.91
  L 241.87 106.99
  A 0.13 0.13 0.0 0 0 242.00 107.12
  Z"
/>
<path fill="#24d8dc" d="
  M 334.45 109.05
  A 12.25 12.25 0.0 0 1 322.20 121.30
  A 12.25 12.25 0.0 0 1 309.95 109.05
  A 12.25 12.25 0.0 0 1 322.20 96.80
  A 12.25 12.25 0.0 0 1 334.45 109.05
  Z
  M 322.2318 102.2304
  A 6.86 5.98 -89.4 0 0 316.1803 109.0274
  A 6.86 5.98 -89.4 0 0 322.0882 115.9496
  A 6.86 5.98 -89.4 0 0 328.1397 109.1526
  A 6.86 5.98 -89.4 0 0 322.2318 102.2304
  Z"
/>
<path fill="#3730a3" d="
  M 157.09 99.92
  Q 160.01 97.02 163.05 97.23
  A 0.80 0.79 1.2 0 1 163.79 98.00
  L 163.89 102.35
  A 0.80 0.80 0.0 0 1 163.10 103.17
  C 158.76 103.20 156.59 104.46 156.68 109.18
  Q 156.79 114.55 156.70 120.23
  A 0.66 0.65 0.4 0 1 156.04 120.87
  L 151.13 120.87
  A 0.70 0.69 90.0 0 1 150.44 120.17
  L 150.44 97.94
  A 0.60 0.60 0.0 0 1 151.04 97.34
  L 155.42 97.34
  A 0.93 0.92 -0.0 0 1 156.35 98.26
  L 156.35 99.61
  A 0.44 0.43 67.6 0 0 157.09 99.92
  Z"
/>
<path fill="#a055ec" fill-opacity="0.996" d="
  M 209.99 120.38
  L 209.99 119.21
  A 0.46 0.45 -19.4 0 0 209.25 118.86
  C 202.87 123.91 194.05 120.11 193.79 111.73
  Q 193.63 106.49 193.79 97.72
  A 0.50 0.49 0.6 0 1 194.29 97.24
  L 199.37 97.24
  A 0.51 0.51 0.0 0 1 199.88 97.75
  Q 199.96 105.69 199.92 108.84
  C 199.89 112.24 200.29 114.92 203.62 115.78
  C 207.69 116.82 209.78 113.66 209.92 109.98
  Q 209.93 109.84 209.92 97.67
  A 0.47 0.47 0.0 0 1 210.39 97.20
  L 215.41 97.20
  A 0.49 0.49 0.0 0 1 215.90 97.69
  L 215.90 120.27
  A 0.62 0.62 0.0 0 1 215.28 120.89
  L 210.50 120.89
  A 0.51 0.51 0.0 0 1 209.99 120.38
  Z"
/>
<rect fill="#2cb9cf" x="-3.06" y="-11.80" transform="translate(291.83,109.02) rotate(0.2)" width="6.12" height="23.60" rx="0.57"/>
<path fill="#24d8dc" d="
  M 350.08 120.91
  Q 349.98 120.87 347.52 120.90
  Q 339.49 120.99 339.43 113.02
  Q 339.37 106.34 339.39 102.40
  A 3.07 3.07 0.0 0 1 342.68 99.36
  L 342.95 99.37
  A 3.07 3.06 -88.3 0 1 345.83 102.43
  L 345.83 114.11
  A 1.48 1.48 0.0 0 0 347.31 115.59
  L 350.28 115.59
  A 0.56 0.55 0.5 0 1 350.84 116.15
  L 350.76 120.44
  A 0.51 0.51 0.0 0 1 350.08 120.91
  Z"
/>
<path fill="#3730a3" d="
  M 82.33 112.82
  L 87.70 105.57
  A 0.67 0.67 0.0 0 1 88.68 105.47
  L 97.21 112.89
  A 0.67 0.67 0.0 0 1 97.44 113.40
  L 97.44 125.32
  A 0.67 0.67 0.0 0 1 96.33 125.82
  L 82.43 113.73
  A 0.67 0.67 0.0 0 1 82.33 112.82
  Z"
/>
<path fill="#a055ec" fill-opacity="0.996" d="
  M 92.54 142.14
  Q 93.17 142.07 95.73 141.88
  Q 101.27 141.45 102.44 136.06
  A 2.54 2.50 -21.4 0 1 102.87 135.09
  L 109.86 125.66
  A 0.73 0.73 0.0 0 1 111.07 125.71
  C 115.90 133.58 113.31 143.59 106.13 148.97
  Q 100.98 152.82 92.63 152.64
  A 0.61 0.60 -89.5 0 1 92.04 152.03
  L 92.04 142.69
  A 0.56 0.55 -2.9 0 1 92.54 142.14
  Z"
/>
<circle fill="#3730a3" cx="56.11" cy="147.24" r="5.21"/>
<circle fill="#3730a3" cx="69.81" cy="147.22" r="5.24"/>
<circle fill="#a055ec" fill-opacity="0.996" cx="83.49" cy="147.19" r="5.28"/>
</svg>
